<svg t="1634263488925" class="icon" viewBox="0 0 1024 1024" version="1.1" xmlns="http://www.w3.org/2000/svg" p-id="3603" width="200" height="200"><path d="M621.7216 85.333333V68.266667a51.2 51.2 0 0 0-51.2-51.2H153.6a68.266667 68.266667 0 0 0-68.266667 68.266666v870.4a51.2 51.2 0 1 0 102.4 0V631.466667a68.266667 68.266667 0 0 1 68.266667-68.266667h163.345067a51.2 51.2 0 0 1 51.2 51.2v17.066667a51.2 51.2 0 0 0 51.2 51.2H870.4a68.266667 68.266667 0 0 0 68.266667-68.266667V204.8a68.266667 68.266667 0 0 0-68.266667-68.266667H672.9216a51.2 51.2 0 0 1-51.2-51.2z" fill="#ffffff" p-id="3604"></path></svg>